<mxfile host="app.diagrams.net" modified="2023-01-26T23:35:06.805Z" agent="5.0 (Windows NT 10.0; Win64; x64) AppleWebKit/537.36 (KHTML, like Gecko) Chrome/108.0.0.0 Safari/537.36 OPR/94.0.0.0" etag="x8TFgMAkafQffSNRpUsV" version="20.8.12" type="github">
  <diagram name="PÃ¡gina-1" id="ictIgcKsMGv44xbnA1ga">
    <mxGraphModel dx="1001" dy="1485" grid="1" gridSize="10" guides="1" tooltips="1" connect="1" arrows="1" fold="1" page="1" pageScale="1" pageWidth="919" pageHeight="401" math="0" shadow="0">
      <root>
        <mxCell id="0" />
        <mxCell id="1" parent="0" />
        <mxCell id="pBfRWqHjYidwjYf0Eae7-1" value="&lt;b&gt;&lt;font style=&quot;font-size: 16px;&quot;&gt;character&lt;/font&gt;&lt;/b&gt;" style="swimlane;fontStyle=0;childLayout=stackLayout;horizontal=1;startSize=40;horizontalStack=0;resizeParent=1;resizeParentMax=0;resizeLast=0;collapsible=1;marginBottom=0;whiteSpace=wrap;html=1;strokeWidth=2;" vertex="1" parent="1">
          <mxGeometry x="519.9999999999999" y="40" width="120" height="280" as="geometry" />
        </mxCell>
        <mxCell id="pBfRWqHjYidwjYf0Eae7-2" value="id" style="text;strokeColor=#314354;fillColor=#647687;align=left;verticalAlign=middle;spacingLeft=4;spacingRight=4;overflow=hidden;points=[[0,0.5],[1,0.5]];portConstraint=eastwest;rotatable=0;whiteSpace=wrap;html=1;strokeWidth=2;fontColor=#ffffff;" vertex="1" parent="pBfRWqHjYidwjYf0Eae7-1">
          <mxGeometry y="40" width="120" height="40" as="geometry" />
        </mxCell>
        <mxCell id="pBfRWqHjYidwjYf0Eae7-3" value="name" style="text;strokeColor=none;fillColor=none;align=left;verticalAlign=middle;spacingLeft=4;spacingRight=4;overflow=hidden;points=[[0,0.5],[1,0.5]];portConstraint=eastwest;rotatable=0;whiteSpace=wrap;html=1;" vertex="1" parent="pBfRWqHjYidwjYf0Eae7-1">
          <mxGeometry y="80" width="120" height="40" as="geometry" />
        </mxCell>
        <mxCell id="pBfRWqHjYidwjYf0Eae7-4" value="level" style="text;strokeColor=none;fillColor=none;align=left;verticalAlign=middle;spacingLeft=4;spacingRight=4;overflow=hidden;points=[[0,0.5],[1,0.5]];portConstraint=eastwest;rotatable=0;whiteSpace=wrap;html=1;" vertex="1" parent="pBfRWqHjYidwjYf0Eae7-1">
          <mxGeometry y="120" width="120" height="40" as="geometry" />
        </mxCell>
        <mxCell id="pBfRWqHjYidwjYf0Eae7-9" value="race_id" style="text;strokeColor=none;fillColor=none;align=left;verticalAlign=middle;spacingLeft=4;spacingRight=4;overflow=hidden;points=[[0,0.5],[1,0.5]];portConstraint=eastwest;rotatable=0;whiteSpace=wrap;html=1;" vertex="1" parent="pBfRWqHjYidwjYf0Eae7-1">
          <mxGeometry y="160" width="120" height="40" as="geometry" />
        </mxCell>
        <mxCell id="pBfRWqHjYidwjYf0Eae7-5" value="subclass_id" style="text;strokeColor=none;fillColor=none;align=left;verticalAlign=middle;spacingLeft=4;spacingRight=4;overflow=hidden;points=[[0,0.5],[1,0.5]];portConstraint=eastwest;rotatable=0;whiteSpace=wrap;html=1;" vertex="1" parent="pBfRWqHjYidwjYf0Eae7-1">
          <mxGeometry y="200" width="120" height="40" as="geometry" />
        </mxCell>
        <mxCell id="pBfRWqHjYidwjYf0Eae7-8" value="background_id" style="text;strokeColor=none;fillColor=none;align=left;verticalAlign=middle;spacingLeft=4;spacingRight=4;overflow=hidden;points=[[0,0.5],[1,0.5]];portConstraint=eastwest;rotatable=0;whiteSpace=wrap;html=1;" vertex="1" parent="pBfRWqHjYidwjYf0Eae7-1">
          <mxGeometry y="240" width="120" height="40" as="geometry" />
        </mxCell>
        <mxCell id="pBfRWqHjYidwjYf0Eae7-67" value="&lt;b&gt;&lt;font style=&quot;font-size: 16px;&quot;&gt;classes&lt;/font&gt;&lt;/b&gt;" style="swimlane;fontStyle=0;childLayout=stackLayout;horizontal=1;startSize=43;horizontalStack=0;resizeParent=1;resizeParentMax=0;resizeLast=0;collapsible=1;marginBottom=0;whiteSpace=wrap;html=1;strokeWidth=2;" vertex="1" parent="1">
          <mxGeometry x="40.000000000000014" y="120" width="160" height="120" as="geometry" />
        </mxCell>
        <mxCell id="pBfRWqHjYidwjYf0Eae7-68" value="id" style="text;strokeColor=#314354;fillColor=#647687;align=left;verticalAlign=middle;spacingLeft=4;spacingRight=4;overflow=hidden;points=[[0,0.5],[1,0.5]];portConstraint=eastwest;rotatable=0;whiteSpace=wrap;html=1;strokeWidth=2;fontColor=#ffffff;" vertex="1" parent="pBfRWqHjYidwjYf0Eae7-67">
          <mxGeometry y="43" width="160" height="37" as="geometry" />
        </mxCell>
        <mxCell id="pBfRWqHjYidwjYf0Eae7-69" value="name" style="text;strokeColor=none;fillColor=none;align=left;verticalAlign=middle;spacingLeft=4;spacingRight=4;overflow=hidden;points=[[0,0.5],[1,0.5]];portConstraint=eastwest;rotatable=0;whiteSpace=wrap;html=1;" vertex="1" parent="pBfRWqHjYidwjYf0Eae7-67">
          <mxGeometry y="80" width="160" height="40" as="geometry" />
        </mxCell>
        <mxCell id="pBfRWqHjYidwjYf0Eae7-71" value="&lt;b&gt;&lt;font style=&quot;font-size: 16px;&quot;&gt;subclasses&lt;/font&gt;&lt;/b&gt;" style="swimlane;fontStyle=0;childLayout=stackLayout;horizontal=1;startSize=43;horizontalStack=0;resizeParent=1;resizeParentMax=0;resizeLast=0;collapsible=1;marginBottom=0;whiteSpace=wrap;html=1;strokeWidth=2;" vertex="1" parent="1">
          <mxGeometry x="280" y="120" width="160" height="160" as="geometry" />
        </mxCell>
        <mxCell id="pBfRWqHjYidwjYf0Eae7-72" value="id" style="text;strokeColor=#314354;fillColor=#647687;align=left;verticalAlign=middle;spacingLeft=4;spacingRight=4;overflow=hidden;points=[[0,0.5],[1,0.5]];portConstraint=eastwest;rotatable=0;whiteSpace=wrap;html=1;strokeWidth=2;fontColor=#ffffff;" vertex="1" parent="pBfRWqHjYidwjYf0Eae7-71">
          <mxGeometry y="43" width="160" height="37" as="geometry" />
        </mxCell>
        <mxCell id="pBfRWqHjYidwjYf0Eae7-73" value="name" style="text;strokeColor=none;fillColor=none;align=left;verticalAlign=middle;spacingLeft=4;spacingRight=4;overflow=hidden;points=[[0,0.5],[1,0.5]];portConstraint=eastwest;rotatable=0;whiteSpace=wrap;html=1;" vertex="1" parent="pBfRWqHjYidwjYf0Eae7-71">
          <mxGeometry y="80" width="160" height="40" as="geometry" />
        </mxCell>
        <mxCell id="pBfRWqHjYidwjYf0Eae7-85" value="class_id" style="text;strokeColor=none;fillColor=none;align=left;verticalAlign=middle;spacingLeft=4;spacingRight=4;overflow=hidden;points=[[0,0.5],[1,0.5]];portConstraint=eastwest;rotatable=0;whiteSpace=wrap;html=1;" vertex="1" parent="pBfRWqHjYidwjYf0Eae7-71">
          <mxGeometry y="120" width="160" height="40" as="geometry" />
        </mxCell>
        <mxCell id="pBfRWqHjYidwjYf0Eae7-76" value="&lt;b&gt;&lt;font style=&quot;font-size: 16px;&quot;&gt;races&lt;/font&gt;&lt;/b&gt;" style="swimlane;fontStyle=0;childLayout=stackLayout;horizontal=1;startSize=43;horizontalStack=0;resizeParent=1;resizeParentMax=0;resizeLast=0;collapsible=1;marginBottom=0;whiteSpace=wrap;html=1;strokeWidth=2;" vertex="1" parent="1">
          <mxGeometry x="719.9999999999999" y="40" width="160" height="120" as="geometry" />
        </mxCell>
        <mxCell id="pBfRWqHjYidwjYf0Eae7-77" value="id" style="text;strokeColor=#314354;fillColor=#647687;align=left;verticalAlign=middle;spacingLeft=4;spacingRight=4;overflow=hidden;points=[[0,0.5],[1,0.5]];portConstraint=eastwest;rotatable=0;whiteSpace=wrap;html=1;strokeWidth=2;fontColor=#ffffff;" vertex="1" parent="pBfRWqHjYidwjYf0Eae7-76">
          <mxGeometry y="43" width="160" height="37" as="geometry" />
        </mxCell>
        <mxCell id="pBfRWqHjYidwjYf0Eae7-78" value="name" style="text;strokeColor=none;fillColor=none;align=left;verticalAlign=middle;spacingLeft=4;spacingRight=4;overflow=hidden;points=[[0,0.5],[1,0.5]];portConstraint=eastwest;rotatable=0;whiteSpace=wrap;html=1;" vertex="1" parent="pBfRWqHjYidwjYf0Eae7-76">
          <mxGeometry y="80" width="160" height="40" as="geometry" />
        </mxCell>
        <mxCell id="pBfRWqHjYidwjYf0Eae7-79" value="&lt;b&gt;&lt;font style=&quot;font-size: 16px;&quot;&gt;backgrounds&lt;/font&gt;&lt;/b&gt;" style="swimlane;fontStyle=0;childLayout=stackLayout;horizontal=1;startSize=43;horizontalStack=0;resizeParent=1;resizeParentMax=0;resizeLast=0;collapsible=1;marginBottom=0;whiteSpace=wrap;html=1;strokeWidth=2;" vertex="1" parent="1">
          <mxGeometry x="719.9999999999999" y="240" width="160" height="120" as="geometry" />
        </mxCell>
        <mxCell id="pBfRWqHjYidwjYf0Eae7-80" value="id" style="text;strokeColor=#314354;fillColor=#647687;align=left;verticalAlign=middle;spacingLeft=4;spacingRight=4;overflow=hidden;points=[[0,0.5],[1,0.5]];portConstraint=eastwest;rotatable=0;whiteSpace=wrap;html=1;strokeWidth=2;fontColor=#ffffff;" vertex="1" parent="pBfRWqHjYidwjYf0Eae7-79">
          <mxGeometry y="43" width="160" height="37" as="geometry" />
        </mxCell>
        <mxCell id="pBfRWqHjYidwjYf0Eae7-81" value="name" style="text;strokeColor=none;fillColor=none;align=left;verticalAlign=middle;spacingLeft=4;spacingRight=4;overflow=hidden;points=[[0,0.5],[1,0.5]];portConstraint=eastwest;rotatable=0;whiteSpace=wrap;html=1;" vertex="1" parent="pBfRWqHjYidwjYf0Eae7-79">
          <mxGeometry y="80" width="160" height="40" as="geometry" />
        </mxCell>
        <mxCell id="pBfRWqHjYidwjYf0Eae7-82" style="edgeStyle=orthogonalEdgeStyle;rounded=0;orthogonalLoop=1;jettySize=auto;html=1;exitX=1;exitY=0.5;exitDx=0;exitDy=0;entryX=0;entryY=0.5;entryDx=0;entryDy=0;fontSize=16;" edge="1" parent="1" source="pBfRWqHjYidwjYf0Eae7-9" target="pBfRWqHjYidwjYf0Eae7-76">
          <mxGeometry relative="1" as="geometry" />
        </mxCell>
        <mxCell id="pBfRWqHjYidwjYf0Eae7-83" style="edgeStyle=orthogonalEdgeStyle;rounded=0;orthogonalLoop=1;jettySize=auto;html=1;exitX=1;exitY=0.5;exitDx=0;exitDy=0;entryX=0;entryY=0.5;entryDx=0;entryDy=0;fontSize=16;" edge="1" parent="1" source="pBfRWqHjYidwjYf0Eae7-8" target="pBfRWqHjYidwjYf0Eae7-79">
          <mxGeometry relative="1" as="geometry" />
        </mxCell>
        <mxCell id="pBfRWqHjYidwjYf0Eae7-89" style="edgeStyle=orthogonalEdgeStyle;rounded=0;orthogonalLoop=1;jettySize=auto;html=1;exitX=0;exitY=0.5;exitDx=0;exitDy=0;entryX=1;entryY=0.5;entryDx=0;entryDy=0;fontSize=16;" edge="1" parent="1" source="pBfRWqHjYidwjYf0Eae7-5" target="pBfRWqHjYidwjYf0Eae7-72">
          <mxGeometry relative="1" as="geometry" />
        </mxCell>
        <mxCell id="pBfRWqHjYidwjYf0Eae7-90" style="edgeStyle=orthogonalEdgeStyle;rounded=0;orthogonalLoop=1;jettySize=auto;html=1;entryX=1;entryY=0.5;entryDx=0;entryDy=0;fontSize=16;" edge="1" parent="1" source="pBfRWqHjYidwjYf0Eae7-85" target="pBfRWqHjYidwjYf0Eae7-68">
          <mxGeometry relative="1" as="geometry" />
        </mxCell>
      </root>
    </mxGraphModel>
  </diagram>
</mxfile>
